:SAMPLES-PER-SECOND 30
:FULLY-SPECIFIED
:DEGREES
369
root  40.5379 34.5729 -30.9289 39.6932 87.641 1.0376
RightUpLeg  -80.0156 -10.6836 14.2215
RightLeg  53.7608 -4.75522 -7.34464
RightFoot  -8.28788 0.118559 -6.53533
RightToes  0.00048216 0.542163 -0.142577
Spine  77.6265 -4.95191 6.73935
Spine1  0.872061 1.27922 -7.03607
HEad  -45.2476 -5.49589 2.24926
LeftShoulder1  5.05067 -23.4816 -11.4527
LeftArm  -94.527 -57.433 39.9735
LeftForeArm  -13.3141 -14.464 1.41961
LeftHand  -0.25398 0.0180481 5.50724
RightShoulder  0.994834 11.3629 -1.95168
RightArm  -89.9791 52.5432 -24.3786
RightForeArm  -13.0187 18.4937 3.16377
RightHand  0.91192 9.6332 6.50164
LeftUpLeg  -86.2726 20.9833 -31.5229
LeftLeg  48.4905 -0.577327 -0.262081
LeftFoot  -5.10769 -0.678515 12.9686
LeftToes  1.06245e-005 4.65855e-005 -8.18504e-006
370
root  40.5857 34.6059 -31.0112 33.5826 87.3913 -5.46204
RightUpLeg  -79.9787 -10.1323 13.985
RightLeg  53.2707 -4.88841 -7.40202
RightFoot  -8.1373 0.128705 -6.55338
RightToes  0.00048216 0.542163 -0.142577
Spine  77.2517 -5.04424 6.75306
Spine1  0.952594 1.15836 -7.20535
HEad  -45.7008 -5.24853 2.57434
LeftShoulder1  4.8915 -22.8471 -11.2957
LeftArm  -94.2978 -57.2647 39.5228
LeftForeArm  -14.1807 -14.5749 1.3422
LeftHand  -0.25398 0.0180481 5.50724
RightShoulder  1.04047 11.2777 -1.55335
RightArm  -90.3421 52.576 -24.3186
RightForeArm  -12.6361 19.954 4.08299
RightHand  1.11677 8.94206 8.50137
LeftUpLeg  -86.8966 21.3461 -32.2499
LeftLeg  48.5259 -0.748109 -0.470107
LeftFoot  -5.08073 -0.683069 12.9922
LeftToes  1.06245e-005 4.65855e-005 -8.18504e-006
371
root  40.5667 34.7006 -31.0708 33.4817 87.2318 -5.5744
RightUpLeg  -79.5929 -9.84138 13.4987
RightLeg  52.6142 -5.03184 -7.42419
RightFoot  -7.74025 0.154642 -6.57113
RightToes  0.00048216 0.542163 -0.142577
Spine  76.996 -5.3027 6.96875
Spine1  0.953447 1.14417 -7.45519
HEad  -46.0085 -5.33251 3.00041
LeftShoulder1  4.81259 -22.7276 -11.0593
LeftArm  -94.0945 -57.1637 37.3615
LeftForeArm  -13.928 -15.4049 0.867858
LeftHand  -0.25398 0.0180481 5.50724
RightShoulder  1.11268 11.3341 -1.0287
RightArm  -89.8979 52.2901 -23.8526
RightForeArm  -12.2354 21.1233 4.70212
RightHand  1.22726 7.96937 10.1125
LeftUpLeg  -86.7957 21.719 -32.9487
LeftLeg  47.969 -0.968975 -0.718809
LeftFoot  -5.01846 -0.694449 13.0586
LeftToes  1.06245e-005 4.65855e-005 -8.18504e-006
372
root  40.4945 34.8679 -31.1079 36.3156 87.1339 -2.46002
RightUpLeg  -78.747 -9.67477 12.8525
RightLeg  51.5016 -5.28673 -7.46895
RightFoot  -7.19155 0.188688 -6.53712
RightToes  0.00048216 0.542163 -0.142577
Spine  76.8014 -5.59457 7.2448
Spine1  0.813158 1.21153 -7.56716
HEad  -46.0107 -5.35547 3.39484
LeftShoulder1  4.93339 -22.8492 -11.4693
LeftArm  -94.1405 -57.0293 34.4241
LeftForeArm  -11.3889 -16.9892 -0.288014
LeftHand  -0.25398 0.0180481 5.50724
RightShoulder  1.23524 11.5145 -0.202963
RightArm  -88.5876 52.0237 -23.1672
RightForeArm  -11.8573 22.2585 5.18999
RightHand  1.17887 7.19172 10.3515
LeftUpLeg  -86.1378 22.1296 -33.6972
LeftLeg  46.6486 -1.38368 -1.14583
LeftFoot  -4.44905 -0.796397 13.5965
LeftToes  1.06245e-005 4.65855e-005 -8.18504e-006
373
root  40.3889 35.0993 -31.1369 36.5284 86.9371 -1.87939
RightUpLeg  -77.5272 -9.36891 12.2425
RightLeg  49.8161 -5.51357 -7.31849
RightFoot  -6.45751 0.239757 -6.62953
RightToes  0.00048216 0.542163 -0.142577
Spine  76.3692 -5.7693 7.52964
Spine1  0.676574 1.27629 -7.40651
HEad  -45.7012 -5.06292 3.76891
LeftShoulder1  5.17523 -22.9521 -12.3939
LeftArm  -92.5055 -56.6132 31.5043
LeftForeArm  -9.03307 -18.5004 -1.74863
LeftHand  -0.25398 0.0180481 5.50724
RightShoulder  1.38018 11.8853 0.643265
RightArm  -86.2037 51.8993 -21.9537
RightForeArm  -12.6322 23.7987 5.70488
RightHand  1.03233 6.39936 9.6784
LeftUpLeg  -85.2717 22.7476 -34.4247
LeftLeg  44.7784 -1.96237 -1.6749
LeftFoot  -3.42337 -0.942251 13.8491
LeftToes  1.06245e-005 4.65855e-005 -8.18504e-006
374
root  40.254 35.4087 -31.1831 34.201 86.5731 -3.69745
RightUpLeg  -75.9484 -9.04164 11.7149
RightLeg  47.6129 -5.55311 -6.82319
RightFoot  -5.23266 0.331389 -6.85751
RightToes  0.00048216 0.542163 -0.142577
Spine  75.5872 -5.90449 7.80695
Spine1  0.966714 1.30521 -7.08975
HEad  -45.272 -4.68858 4.24731
LeftShoulder1  5.41312 -23.1192 -13.2369
LeftArm  -89.329 -55.673 27.832
LeftForeArm  -8.11981 -20.1776 -3.35419
LeftHand  -0.25398 0.0180481 5.50724
RightShoulder  1.50579 12.2263 1.33029
RightArm  -83.0233 51.9714 -19.8192
RightForeArm  -15.1028 26.2692 6.39262
RightHand  0.847891 5.01926 9.03504
LeftUpLeg  -84.0406 23.6576 -35.0518
LeftLeg  42.4574 -2.61269 -2.16305
LeftFoot  -2.45191 -1.04415 13.5551
LeftToes  1.06245e-005 4.65855e-005 -8.18504e-006
375
root  40.0852 35.804 -31.2587 33.6395 85.989 -3.39691
RightUpLeg  -73.871 -8.99672 11.1867
RightLeg  44.8933 -5.34577 -5.99734
RightFoot  -3.47009 0.462071 -7.04404
RightToes  0.00048216 0.542163 -0.142577
Spine  74.5647 -6.09262 7.96802
Spine1  1.90564 1.32643 -6.774
HEad  -44.9269 -4.65846 4.81399
LeftShoulder1  5.67159 -23.4368 -14.0184
LeftArm  -85.8313 -54.2944 22.5162
LeftForeArm  -7.32433 -22.9582 -5.08864
LeftHand  -0.25398 0.0180481 5.50724
RightShoulder  1.58988 12.2319 1.93356
RightArm  -79.4427 52.2866 -16.4942
RightForeArm  -18.3933 29.7687 7.40933
RightHand  0.615424 2.88559 8.32795
LeftUpLeg  -82.2225 24.9437 -35.9128
LeftLeg  39.5759 -3.42518 -2.6477
LeftFoot  -1.73552 -1.13007 13.5014
LeftToes  1.06245e-005 4.65855e-005 -8.18504e-006
376
root  39.883 36.2493 -31.3571 35.0341 85.0802 -0.656372
RightUpLeg  -71.1522 -9.22789 10.605
RightLeg  41.6546 -4.81224 -4.86917
RightFoot  -1.60954 0.603315 -7.19779
RightToes  0.00048216 0.542163 -0.142577
Spine  73.3687 -6.21849 7.97708
Spine1  3.2042 1.34202 -6.42089
HEad  -44.7311 -5.1086 5.29877
LeftShoulder1  6.04524 -23.6885 -15.3003
LeftArm  -80.436 -52.8936 16.0614
LeftForeArm  -6.95664 -26.8664 -6.16079
LeftHand  -0.25398 0.0180481 5.50724
RightShoulder  1.6536 11.9743 2.59172
RightArm  -74.8437 52.5973 -11.702
RightForeArm  -21.6192 33.8671 8.67329
RightHand  0.358569 0.614445 6.87791
LeftUpLeg  -79.949 26.6904 -37.1101
LeftLeg  36.2199 -4.37182 -3.06488
LeftFoot  -0.788598 -1.26916 13.7226
LeftToes  1.06245e-005 4.65855e-005 -8.18504e-006
